# xmcd CD database file generated by Grip 3.2.0
# 
# Track frame offsets:
#       183
#       14033
#       27208
#       40758
#       53595
#       68370
#       80358
#       94920
#       108933
#       122670
#       136270
#       149083
#       162145
#       175483
#       190420
#       203233
#       218590
#       233858
#       247683
#       262770
#       278333
# 
# Disc length: 3867 seconds
# 
# Revision: 1
# Processed by: cddbd v1.5.1PL2 Copyright (c) Steve Scherf et al.
# Submitted via: Grip 3.2.0
# 
DISCID=170f1915
DTITLE=Big Bill Broonzy - Black, Brown And White
DYEAR=1900
DGENRE=Blues
TTITLE0=Get Back - Black, Brown And White-
TTITLE1=Hey Hey (Baby)
TTITLE2=Stump Blues
TTITLE3=Willie Mae (Blues)
TTITLE4=Walkin' Down A Lonesome Road
TTITLE5=Mopper's Blues
TTITLE6=I Know She Will
TTITLE7=Hollerin' And Cryin' The Blues -Hollerin' Blues-
TTITLE8=Leavin' Day
TTITLE9=Southbound Train
TTITLE10=Tomorrow
TTITLE11=You Changed
TTITLE12=The Bunny Hop
TTITLE13=John Henry
TTITLE14=The Crawdad Song
TTITLE15=Bill Bailey, Won't You Please Come Home
TTITLE16=Make My Getaway
TTITLE17=Jimmy Crack Corn -The Blue Tail Fly-
TTITLE18=Backwater Blues -Bessie Smith-
TTITLE19=In The Evening (When The Sun Goes Down) -Leroy Carr-
TTITLE20=Trouble In Mind -Richard M. Jones-
EXTD=
EXTT0=
EXTT1=
EXTT2=
EXTT3=
EXTT4=
EXTT5=
EXTT6=
EXTT7=
EXTT8=
EXTT9=
EXTT10=
EXTT11=
EXTT12=
EXTT13=
EXTT14=
EXTT15=
EXTT16=
EXTT17=
EXTT18=
EXTT19=
EXTT20=
PLAYORDER=
